# xmcd
#
# Track frame offsets:
#	150
#	11686
#	24129
#	35219
#	44722
#	56132
#	66046
#	75614
#	86066
#	99194
#	111729
#	123217
#	135155
#	146399
#	156059
#	165343
#	176600
#	186875
#	198529
#	208177
#	217741
#	230266
#	241517
#	253125
#	266655
#
# Disc length: 3738 seconds
#
# Revision: 0
# Processed by: cddbd v1.5.2PL0 Copyright (c) Steve Scherf et al.
# Submitted via: EZCDAudioConverter 2.4.0.1
#
DISCID=550e9819
DTITLE=Faron Young - Wine Me Up - Best Of Mercury Years CD 1
DYEAR=2014
DGENRE=Country
TTITLE0=Young Faron - Wine Me Up
TTITLE1=Young Faron - Walk Talk
TTITLE2=Young Faron - Yellow Bandana
TTITLE3=Young Faron - Nightmare
TTITLE4=Young Faron and Margie Singleton - Keeping Up With The Joneses
TTITLE5=Young Faron - Nothing Left To Lose
TTITLE6=Young Faron - My Dreams
TTITLE7=Young Faron and Margie Singleton - Another Woman's Man Another Man's Wom
TTITLE7=an
TTITLE8=Young Faron - City Lights
TTITLE9=Young Faron - Unmitigated Gall
TTITLE10=Young Faron - I Guess I Had Too Much To Dream Last Night
TTITLE11=Young Faron - I've Come To Say Goodbye
TTITLE12=Young Faron - You're Got Something In Common
TTITLE13=Young Faron - You'll Drive Me Back (Into Her Arms Again)
TTITLE14=Young Faron - Rhinestones
TTITLE15=Young Faron - My Friend On The Right
TTITLE16=Young Faron - Occasional Wife
TTITLE17=Young Faron - If I Ever Fall In Love (With A Honky Tonk Girl)
TTITLE18=Young Faron - Goin' Steady (Alt.)
TTITLE19=Young Faron - Wonderful World Of Women
TTITLE20=Young Faron - Step Aside
TTITLE21=Young Faron - Leavin' And Sayin' Goodbye
TTITLE22=Young Faron - She Went A Little Bit Farther
TTITLE23=Young Faron - This Little Girl Of Mine
TTITLE24=Young Faron - It's Four In The Morning
EXTD=
EXTT0=
EXTT1=
EXTT2=
EXTT3=
EXTT4=
EXTT5=
EXTT6=
EXTT7=
EXTT8=
EXTT9=
EXTT10=
EXTT11=
EXTT12=
EXTT13=
EXTT14=
EXTT15=
EXTT16=
EXTT17=
EXTT18=
EXTT19=
EXTT20=
EXTT21=
EXTT22=
EXTT23=
EXTT24=
PLAYORDER=
